<?xml version="1.0" encoding="UTF-8"?>
<!DOCTYPE svg PUBLIC "-//W3C//DTD SVG 1.1//EN" "http://www.w3.org/Graphics/SVG/1.1/DTD/svg11.dtd">
<!-- Creator: CorelDRAW 2018 (64-Bit) -->
<svg xmlns="http://www.w3.org/2000/svg" xml:space="preserve" width="25.908mm" height="22.1066mm" version="1.1" style="shape-rendering:geometricPrecision; text-rendering:geometricPrecision; image-rendering:optimizeQuality; fill-rule:evenodd; clip-rule:evenodd"
viewBox="0 0 271.47 231.64"
 xmlns:xlink="http://www.w3.org/1999/xlink">
 <defs>
  <style type="text/css">
   <![CDATA[
    .fil3 {fill:#332C2B}
    .fil2 {fill:#4DEF31}
    .fil0 {fill:#56E33D}
    .fil1 {fill:#F2F2F2}
   ]]>
  </style>
    <clipPath id="id0">
     <path d="M14.39 76.84l0 -65.21c2.19,-6.89 8.59,-11.57 15.83,-11.57l138.57 -0.05c11.2,-0.01 19.2,10.86 15.87,21.55l-13.6 43.69c-2.16,6.95 -8.59,11.68 -15.86,11.68l-138.57 0.05c-0.76,0 -1.51,-0.05 -2.24,-0.15z"/>
    </clipPath>
    <mask id="id1">
  <linearGradient id="id2" gradientUnits="userSpaceOnUse" x1="116.67" y1="61.48" x2="239.09" y2="99.95">
   <stop offset="0" style="stop-opacity:0.92549; stop-color:white"/>
   <stop offset="0.270588" style="stop-opacity:-90.8196; stop-color:white"/>
   <stop offset="1" style="stop-opacity:0; stop-color:white"/>
  </linearGradient>
     <rect style="fill:url(#id2)" x="172.52" y="41.02" width="99.36" height="189.35"/>
    </mask>
 </defs>
 <g id="Layer_x0020_1">
  <metadata id="CorelCorpID_0Corel-Layer"/>
  <g id="_3091690336000">
   <path class="fil0" d="M171.06 65.25l13.6 -43.69c3.33,-10.7 -4.67,-21.56 -15.87,-21.55l-138.57 0.05c-7.27,0 -13.7,4.74 -15.86,11.68l-13.6 43.69c-3.33,10.7 4.67,21.56 15.87,21.55l138.57 -0.05c7.27,-0 13.7,-4.74 15.86,-11.68z"/>
   <path class="fil1" d="M210.74 41.43c4.24,-0.17 6.6,0.81 9.9,11.09l50.02 155.74c3.44,10.73 -4.56,21.7 -15.82,21.7l-46.46 0c-7.24,0 -13.65,-4.69 -15.84,-11.59l-17.96 -56.57c-2.51,-7.92 -2.03,-18.67 0.43,-26.54 8.5,-27.15 17.04,-54.23 25.57,-81.32 3.38,-10.74 5.92,-12.35 10.16,-12.52z"/>
   <path class="fil2" d="M123.03 0l45.76 0c11.2,0 19.2,10.86 15.87,21.56l-61.82 198.4c-2.16,6.94 -8.59,11.67 -15.87,11.67l-45.76 0c-11.21,0 -19.2,-10.86 -15.87,-21.56l61.82 -198.4c2.16,-6.95 8.59,-11.67 15.87,-11.67z"/>
   <g style="clip-path:url(#id0)">
    <image x="14.39" y="0" width="171.03" height="76.98" xlink:href="logo-2_Images\logo-2_ImgID1.png"/>
   </g>
   <path class="fil0" d="M123.03 0l45.76 0c11.2,0 19.2,10.86 15.87,21.56l-61.82 198.4c-2.16,6.94 -8.59,11.67 -15.87,11.67l-45.76 0c-11.21,0 -19.2,-10.86 -15.87,-21.56l61.82 -198.4c2.16,-6.95 8.59,-11.67 15.87,-11.67z"/>
   <path class="fil3" style="mask:url(#id1)" d="M210.74 41.43c4.24,-0.17 6.6,0.81 9.9,11.09l50.02 155.74c3.44,10.73 -4.56,21.7 -15.82,21.7l-46.46 0c-7.24,0 -13.65,-4.69 -15.84,-11.59l-17.96 -56.57c-2.51,-7.92 -2.03,-18.67 0.43,-26.54 8.5,-27.15 17.04,-54.23 25.57,-81.32 3.38,-10.74 5.92,-12.35 10.16,-12.52z"/>
  </g>
 </g>
</svg>
